<svg width="48" height="48" viewBox="0 0 48 48" fill="none" xmlns="http://www.w3.org/2000/svg">
<path d="M24.9199 45.5002C24.5799 45.5002 24.2399 45.5002 23.8999 45.4802C12.6999 44.9802 3.3399 35.9602 2.5599 24.9602C1.8799 15.5202 7.3399 6.70023 16.1399 3.00023C18.6399 1.96023 19.9599 2.76023 20.5199 3.34023C21.0799 3.90023 21.8599 5.20023 20.8199 7.58023C19.8999 9.70023 19.4399 11.9602 19.4599 14.2802C19.4999 23.1402 26.8599 30.6602 35.8399 31.0202C37.1399 31.0802 38.4199 30.9802 39.6599 30.7602C42.2999 30.2802 43.3999 31.3402 43.8199 32.0202C44.2399 32.7002 44.7199 34.1602 43.1199 36.3202C38.8799 42.1202 32.1399 45.5002 24.9199 45.5002ZM5.5399 24.7402C6.2199 34.2602 14.3399 42.0602 24.0199 42.4802C30.5999 42.8002 36.8399 39.8002 40.6799 34.5602C40.9799 34.1402 41.1199 33.8402 41.1799 33.6802C40.9999 33.6602 40.6799 33.6402 40.1799 33.7402C38.7199 34.0002 37.1999 34.1002 35.6999 34.0402C25.1399 33.6202 16.4999 24.7602 16.4399 14.3202C16.4399 11.5602 16.9799 8.90023 18.0799 6.40023C18.2799 5.96023 18.3199 5.66023 18.3399 5.50023C18.1599 5.50023 17.8399 5.54023 17.3199 5.76023C9.6999 8.96023 4.9799 16.6002 5.5399 24.7402Z" fill="#292D32"/>
</svg>
