<svg width="48" height="48" viewBox="0 0 48 48" fill="none" xmlns="http://www.w3.org/2000/svg">
<path d="M30 45.5002H18C7.14 45.5002 2.5 40.8602 2.5 30.0002V18.0002C2.5 7.14024 7.14 2.50024 18 2.50024H30C40.86 2.50024 45.5 7.14024 45.5 18.0002V30.0002C45.5 40.8602 40.86 45.5002 30 45.5002ZM18 5.50024C8.78 5.50024 5.5 8.78024 5.5 18.0002V30.0002C5.5 39.2202 8.78 42.5002 18 42.5002H30C39.22 42.5002 42.5 39.2202 42.5 30.0002V18.0002C42.5 8.78024 39.22 5.50024 30 5.50024H18Z" fill="#292D32"/>
<path d="M31 21.0002C28.52 21.0002 26.5 18.9802 26.5 16.5002C26.5 14.0202 28.52 12.0002 31 12.0002C33.48 12.0002 35.5 14.0202 35.5 16.5002C35.5 18.9802 33.48 21.0002 31 21.0002ZM31 15.0002C30.18 15.0002 29.5 15.6802 29.5 16.5002C29.5 17.3202 30.18 18.0002 31 18.0002C31.82 18.0002 32.5 17.3202 32.5 16.5002C32.5 15.6802 31.82 15.0002 31 15.0002Z" fill="#292D32"/>
<path d="M17 21.0002C14.52 21.0002 12.5 18.9802 12.5 16.5002C12.5 14.0202 14.52 12.0002 17 12.0002C19.48 12.0002 21.5 14.0202 21.5 16.5002C21.5 18.9802 19.48 21.0002 17 21.0002ZM17 15.0002C16.18 15.0002 15.5 15.6802 15.5 16.5002C15.5 17.3202 16.18 18.0002 17 18.0002C17.82 18.0002 18.5 17.3202 18.5 16.5002C18.5 15.6802 17.82 15.0002 17 15.0002Z" fill="#292D32"/>
<path d="M24 38.9003C18.2 38.9003 13.5 34.1803 13.5 28.4003C13.5 26.5803 14.98 25.1003 16.8 25.1003H31.2C33.02 25.1003 34.5 26.5803 34.5 28.4003C34.5 34.1803 29.8 38.9003 24 38.9003ZM16.8 28.1003C16.64 28.1003 16.5 28.2403 16.5 28.4003C16.5 32.5403 19.86 35.9003 24 35.9003C28.14 35.9003 31.5 32.5403 31.5 28.4003C31.5 28.2403 31.36 28.1003 31.2 28.1003H16.8Z" fill="#292D32"/>
</svg>
