<svg width="48" height="48" viewBox="0 0 48 48" fill="none" xmlns="http://www.w3.org/2000/svg">
<path d="M24 45.5002C12.14 45.5002 2.5 35.8602 2.5 24.0002C2.5 12.1402 12.14 2.50024 24 2.50024C35.86 2.50024 45.5 12.1402 45.5 24.0002C45.5 35.8602 35.86 45.5002 24 45.5002ZM24 5.50024C13.8 5.50024 5.5 13.8002 5.5 24.0002C5.5 34.2002 13.8 42.5002 24 42.5002C34.2 42.5002 42.5 34.2002 42.5 24.0002C42.5 13.8002 34.2 5.50024 24 5.50024Z" fill="#292D32"/>
<path d="M23.9997 36.5002C23.5797 36.5002 23.1797 36.4403 22.8397 36.3203C18.5397 34.8603 11.7197 29.6203 11.7197 21.8203C11.7197 17.6603 15.0797 14.2803 19.2197 14.2803C21.0197 14.2803 22.6797 14.9003 24.0197 16.0203C25.3597 14.9003 27.0397 14.2803 28.7997 14.2803C32.9397 14.2803 36.2997 17.6603 36.2997 21.8203C36.2997 29.6003 29.4797 34.8403 25.1597 36.3203C24.8197 36.4403 24.3997 36.5002 23.9997 36.5002ZM19.1997 17.3002C16.7197 17.3002 14.6997 19.3403 14.6997 21.8403C14.6997 28.8203 21.4397 32.7002 23.7997 33.5002C23.8797 33.5202 24.0797 33.5202 24.1597 33.5002C26.5197 32.7002 33.2597 28.8203 33.2597 21.8403C33.2597 19.3403 31.2397 17.3002 28.7597 17.3002C27.3597 17.3002 26.0197 17.9802 25.1797 19.1202C24.6197 19.8802 23.3397 19.8802 22.7797 19.1202C21.9397 17.9602 20.6397 17.3002 19.1997 17.3002Z" fill="#292D32"/>
</svg>
