<svg width="48" height="48" viewBox="0 0 48 48" fill="none" xmlns="http://www.w3.org/2000/svg">
<path d="M24 45.5002C12.14 45.5002 2.5 35.8602 2.5 24.0002C2.5 19.2802 4 14.8002 6.84 11.0402C7.34 10.3802 8.28 10.2602 8.94 10.7602C9.6 11.2602 9.74 12.2002 9.24 12.8602C6.8 16.0802 5.5 19.9402 5.5 24.0002C5.5 34.2002 13.8 42.5002 24 42.5002C34.2 42.5002 42.5 34.2002 42.5 24.0002C42.5 13.8002 34.2 5.50024 24 5.50024C23.18 5.50024 22.5 4.82024 22.5 4.00024C22.5 3.18024 23.18 2.50024 24 2.50024C35.86 2.50024 45.5 12.1402 45.5 24.0002C45.5 35.8602 35.86 45.5002 24 45.5002Z" fill="#292D32"/>
<path d="M24 39.5002C15.46 39.5002 8.5 32.5402 8.5 24.0002C8.5 23.1802 9.18 22.5002 10 22.5002C10.82 22.5002 11.5 23.1802 11.5 24.0002C11.5 30.9002 17.1 36.5002 24 36.5002C30.9 36.5002 36.5 30.9002 36.5 24.0002C36.5 17.1002 30.9 11.5002 24 11.5002C23.18 11.5002 22.5 10.8202 22.5 10.0002C22.5 9.18024 23.18 8.50024 24 8.50024C32.54 8.50024 39.5 15.4602 39.5 24.0002C39.5 32.5402 32.54 39.5002 24 39.5002Z" fill="#292D32"/>
<path d="M24 33.5002C23.18 33.5002 22.5 32.8202 22.5 32.0002C22.5 31.1802 23.18 30.5002 24 30.5002C27.58 30.5002 30.5 27.5802 30.5 24.0002C30.5 20.4202 27.58 17.5002 24 17.5002C23.18 17.5002 22.5 16.8202 22.5 16.0002C22.5 15.1802 23.18 14.5002 24 14.5002C29.24 14.5002 33.5 18.7602 33.5 24.0002C33.5 29.2402 29.24 33.5002 24 33.5002Z" fill="#292D32"/>
</svg>
