<svg width="131" height="42" viewBox="0 0 131 42" fill="none" xmlns="http://www.w3.org/2000/svg">
<path d="M15.7929 9.5957V9.59675C15.776 9.62583 12.2955 15.6297 7.95067 22.96C3.59532 30.3081 0 36.1911 0 36.1911L12.3315 36.137L12.3323 36.1369L12.3297 36.1464C18.3172 36.0304 23.7182 32.0939 25.3119 26.1458C25.8102 24.2864 25.8853 22.4147 25.5964 20.626C24.8043 15.3587 20.9149 11.075 15.7929 9.5957Z" fill="black"/>
<path d="M22.6078 5.80957V5.81061C22.591 5.83969 19.1104 11.8435 14.7656 19.1739C10.4103 26.522 6.81494 32.4049 6.81494 32.4049L19.1464 32.3509L19.1472 32.3507L19.1446 32.3603C25.1321 32.2443 30.5331 28.3078 32.1269 22.3597C32.6251 20.5003 32.7003 18.6286 32.4113 16.8398C31.6192 11.5726 27.7299 7.28883 22.6078 5.80957Z" fill="#10F2C5"/>
<path d="M48.6481 30H42.1855V11.7696H48.7015C50.5352 11.7696 52.1137 12.1346 53.4371 12.8645C54.7605 13.5885 55.7782 14.63 56.4903 15.989C57.2084 17.3479 57.5674 18.974 57.5674 20.867C57.5674 22.766 57.2084 24.398 56.4903 25.7629C55.7782 27.1278 54.7545 28.1752 53.4193 28.9051C52.09 29.635 50.4996 30 48.6481 30ZM46.0399 26.6975H48.4878C49.6272 26.6975 50.5856 26.4958 51.363 26.0922C52.1464 25.6828 52.7339 25.0507 53.1255 24.1962C53.5231 23.3357 53.7219 22.226 53.7219 20.867C53.7219 19.5199 53.5231 18.4191 53.1255 17.5645C52.7339 16.71 52.1493 16.081 51.3719 15.6774C50.5945 15.2739 49.6361 15.0721 48.4967 15.0721H46.0399V26.6975ZM65.3896 30.2225C64.3511 30.2225 63.4105 29.9555 62.5678 29.4214C61.7311 28.8814 61.0665 28.0891 60.5739 27.0447C60.0873 25.9943 59.844 24.7066 59.844 23.1814C59.844 21.6147 60.0962 20.3122 60.6006 19.2736C61.105 18.2292 61.7756 17.4488 62.6124 16.9325C63.455 16.4103 64.3778 16.1492 65.3807 16.1492C66.1463 16.1492 66.7842 16.2798 67.2946 16.5409C67.8109 16.796 68.2263 17.1165 68.5408 17.5022C68.8612 17.882 69.1045 18.2559 69.2707 18.6238H69.3864V11.7696H73.1696V30H69.4309V27.8102H69.2707C69.0927 28.19 68.8405 28.5669 68.5141 28.9407C68.1936 29.3086 67.7753 29.6143 67.259 29.8576C66.7486 30.1009 66.1255 30.2225 65.3896 30.2225ZM66.5913 27.2049C67.2026 27.2049 67.7189 27.0388 68.1402 26.7064C68.5675 26.3682 68.8939 25.8964 69.1194 25.2911C69.3508 24.6858 69.4665 23.9766 69.4665 23.1636C69.4665 22.3506 69.3538 21.6444 69.1283 21.0451C68.9028 20.4457 68.5764 19.9828 68.1491 19.6564C67.7218 19.33 67.2026 19.1668 66.5913 19.1668C65.9682 19.1668 65.443 19.336 65.0158 19.6742C64.5885 20.0125 64.2651 20.4813 64.0455 21.0807C63.8259 21.68 63.7161 22.3743 63.7161 23.1636C63.7161 23.9588 63.8259 24.662 64.0455 25.2733C64.271 25.8786 64.5944 26.3533 65.0158 26.6975C65.443 27.0358 65.9682 27.2049 66.5913 27.2049ZM87.6635 20.2261L84.1919 20.4397C84.1326 20.143 84.005 19.876 83.8091 19.6386C83.6133 19.3953 83.3552 19.2024 83.0347 19.06C82.7202 18.9116 82.3434 18.8375 81.9042 18.8375C81.3167 18.8375 80.8212 18.9621 80.4177 19.2113C80.0141 19.4546 79.8124 19.781 79.8124 20.1905C79.8124 20.5169 79.9429 20.7928 80.204 21.0183C80.4651 21.2439 80.9132 21.4248 81.5482 21.5613L84.0228 22.0598C85.3521 22.3328 86.3431 22.7719 86.9959 23.3773C87.6487 23.9826 87.9751 24.7778 87.9751 25.7629C87.9751 26.659 87.711 27.4453 87.1828 28.1218C86.6606 28.7983 85.9426 29.3265 85.0287 29.7062C84.1207 30.0801 83.0733 30.267 81.8864 30.267C80.0764 30.267 78.6344 29.8902 77.5603 29.1366C76.4921 28.377 75.866 27.3444 75.682 26.0388L79.4118 25.843C79.5245 26.3949 79.7975 26.8162 80.2307 27.107C80.6639 27.3918 81.2188 27.5343 81.8953 27.5343C82.56 27.5343 83.0941 27.4067 83.4976 27.1515C83.9071 26.8904 84.1148 26.5551 84.1207 26.1456C84.1148 25.8014 83.9694 25.5196 83.6845 25.3C83.3997 25.0745 82.9605 24.9024 82.3671 24.7837L79.9993 24.3119C78.6641 24.0449 77.6701 23.582 77.0173 22.9233C76.3704 22.2646 76.047 21.4248 76.047 20.4041C76.047 19.5259 76.2844 18.7692 76.7591 18.1342C77.2398 17.4993 77.9134 17.0097 78.7798 16.6655C79.6521 16.3213 80.6728 16.1492 81.8419 16.1492C83.5688 16.1492 84.9278 16.5142 85.9188 17.2441C86.9158 17.974 87.4974 18.968 87.6635 20.2261ZM96.5228 35.4121C95.2944 35.4121 94.241 35.243 93.3627 34.9047C92.4904 34.5724 91.7961 34.1184 91.2798 33.5428C90.7635 32.9672 90.4282 32.3203 90.2739 31.6023L93.7811 31.1305C93.8879 31.4035 94.057 31.6587 94.2885 31.896C94.5199 32.1334 94.8255 32.3233 95.2053 32.4657C95.5911 32.6141 96.0599 32.6883 96.6118 32.6883C97.4367 32.6883 98.1162 32.4865 98.6502 32.083C99.1903 31.6854 99.4603 31.0177 99.4603 30.0801V27.5788H99.3001C99.1339 27.9586 98.8847 28.3176 98.5523 28.6559C98.22 28.9941 97.7927 29.2701 97.2705 29.4837C96.7483 29.6973 96.1252 29.8042 95.4012 29.8042C94.3745 29.8042 93.4399 29.5668 92.5972 29.092C91.7605 28.6114 91.0928 27.8785 90.5943 26.8934C90.1018 25.9023 89.8555 24.6502 89.8555 23.1369C89.8555 21.588 90.1077 20.2944 90.6122 19.2558C91.1166 18.2173 91.7872 17.4399 92.6239 16.9236C93.4666 16.4073 94.3894 16.1492 95.3923 16.1492C96.1578 16.1492 96.7987 16.2798 97.315 16.5409C97.8313 16.796 98.2467 17.1165 98.5612 17.5022C98.8817 17.882 99.128 18.2559 99.3001 18.6238H99.4425V16.3272H103.208V30.1335C103.208 31.2967 102.923 32.2699 102.353 33.0532C101.784 33.8366 100.994 34.4241 99.9855 34.8157C98.9826 35.2133 97.8283 35.4121 96.5228 35.4121ZM96.6029 26.9557C97.2141 26.9557 97.7304 26.8043 98.1518 26.5017C98.579 26.1931 98.9054 25.754 99.1309 25.1843C99.3624 24.6086 99.4781 23.9202 99.4781 23.1191C99.4781 22.318 99.3653 21.6237 99.1398 21.0361C98.9143 20.4427 98.5879 19.9828 98.1607 19.6564C97.7334 19.33 97.2141 19.1668 96.6029 19.1668C95.9798 19.1668 95.4546 19.336 95.0273 19.6742C94.6 20.0065 94.2766 20.4694 94.057 21.0629C93.8375 21.6563 93.7277 22.3417 93.7277 23.1191C93.7277 23.9084 93.8375 24.5908 94.057 25.1665C94.2826 25.7362 94.606 26.1783 95.0273 26.4928C95.4546 26.8014 95.9798 26.9557 96.6029 26.9557ZM110.018 22.0954V30H106.225V16.3272H109.839V18.7396H110C110.302 17.9443 110.81 17.3153 111.522 16.8524C112.234 16.3836 113.097 16.1492 114.112 16.1492C115.062 16.1492 115.89 16.3569 116.596 16.7723C117.302 17.1877 117.851 17.7812 118.243 18.5526C118.634 19.3182 118.83 20.232 118.83 21.2943V30H115.038V21.9708C115.044 21.1341 114.83 20.4813 114.397 20.0125C113.964 19.5377 113.367 19.3003 112.608 19.3003C112.097 19.3003 111.646 19.4101 111.255 19.6297C110.869 19.8493 110.566 20.1697 110.347 20.5911C110.133 21.0065 110.023 21.5079 110.018 22.0954ZM121.819 30V16.3272H125.495V18.7128H125.637C125.887 17.8642 126.305 17.2233 126.893 16.7901C127.48 16.351 128.157 16.1314 128.922 16.1314C129.112 16.1314 129.317 16.1433 129.536 16.167C129.756 16.1907 129.949 16.2234 130.115 16.2649V19.6297C129.937 19.5763 129.691 19.5288 129.376 19.4873C129.062 19.4457 128.774 19.425 128.513 19.425C127.955 19.425 127.456 19.5466 127.017 19.7899C126.584 20.0273 126.24 20.3596 125.985 20.7869C125.735 21.2142 125.611 21.7067 125.611 22.2646V30H121.819Z" fill="black"/>
</svg>
